<mxfile modified="2020-09-15T09:45:44.664Z" host="app.diagrams.net" agent="5.0 (Windows NT 10.0; Win64; x64) AppleWebKit/537.36 (KHTML, like Gecko) Chrome/85.0.4183.102 Safari/537.36" etag="y0YfLZTnwImD0zeq5Oq3" version="13.7.1" type="github">
  <diagram id="Ht1M8jgEwFfnCIfOTk4-" name="Page-1">
    <mxGraphModel dx="2370" dy="1323" grid="1" gridSize="10" guides="1" tooltips="1" connect="1" arrows="1" fold="1" page="1" pageScale="1" pageWidth="1169" pageHeight="827" background="#F4F1DE" math="0" shadow="0">
      <root>
        <mxCell id="0" />
        <mxCell id="1" parent="0" />
        <mxCell id="TpguyCT8DOVx2taM9COL-9" value="AWS Cloud" style="points=[[0,0],[0.25,0],[0.5,0],[0.75,0],[1,0],[1,0.25],[1,0.5],[1,0.75],[1,1],[0.75,1],[0.5,1],[0.25,1],[0,1],[0,0.75],[0,0.5],[0,0.25]];outlineConnect=0;html=1;whiteSpace=wrap;fontSize=12;fontStyle=0;shape=mxgraph.aws4.group;grIcon=mxgraph.aws4.group_aws_cloud_alt;verticalAlign=top;align=left;spacingLeft=30;dashed=0;strokeColor=#E07A5F;fontColor=#393C56;fillColor=none;" vertex="1" parent="1">
          <mxGeometry x="30" y="160" width="970" height="610" as="geometry" />
        </mxCell>
        <mxCell id="TpguyCT8DOVx2taM9COL-37" style="edgeStyle=orthogonalEdgeStyle;rounded=0;orthogonalLoop=1;jettySize=auto;html=1;labelBackgroundColor=#F4F1DE;strokeColor=#E07A5F;fontColor=#393C56;" edge="1" parent="1" source="TpguyCT8DOVx2taM9COL-14" target="TpguyCT8DOVx2taM9COL-39">
          <mxGeometry relative="1" as="geometry" />
        </mxCell>
        <mxCell id="TpguyCT8DOVx2taM9COL-14" value="" style="outlineConnect=0;fontColor=#393C56;fillColor=#F2CC8F;strokeColor=none;dashed=0;verticalLabelPosition=bottom;verticalAlign=top;align=center;html=1;fontSize=12;fontStyle=0;aspect=fixed;pointerEvents=1;shape=mxgraph.aws4.rds_sql_server_instance_alt;" vertex="1" parent="1">
          <mxGeometry x="782" y="210" width="78" height="78" as="geometry" />
        </mxCell>
        <mxCell id="TpguyCT8DOVx2taM9COL-31" style="edgeStyle=orthogonalEdgeStyle;rounded=0;orthogonalLoop=1;jettySize=auto;html=1;labelBackgroundColor=#F4F1DE;strokeColor=#E07A5F;fontColor=#393C56;" edge="1" parent="1" source="TpguyCT8DOVx2taM9COL-18" target="TpguyCT8DOVx2taM9COL-14">
          <mxGeometry relative="1" as="geometry" />
        </mxCell>
        <mxCell id="TpguyCT8DOVx2taM9COL-36" style="edgeStyle=orthogonalEdgeStyle;rounded=0;orthogonalLoop=1;jettySize=auto;html=1;labelBackgroundColor=#F4F1DE;strokeColor=#E07A5F;fontColor=#393C56;" edge="1" parent="1" source="TpguyCT8DOVx2taM9COL-16" target="TpguyCT8DOVx2taM9COL-18">
          <mxGeometry relative="1" as="geometry" />
        </mxCell>
        <mxCell id="TpguyCT8DOVx2taM9COL-16" value="" style="outlineConnect=0;fontColor=#393C56;gradientDirection=north;fillColor=#F2CC8F;strokeColor=#E07A5F;dashed=0;verticalLabelPosition=bottom;verticalAlign=top;align=center;html=1;fontSize=12;fontStyle=0;aspect=fixed;shape=mxgraph.aws4.resourceIcon;resIcon=mxgraph.aws4.s3;" vertex="1" parent="1">
          <mxGeometry x="236" y="280" width="78" height="78" as="geometry" />
        </mxCell>
        <mxCell id="TpguyCT8DOVx2taM9COL-22" style="edgeStyle=orthogonalEdgeStyle;rounded=0;orthogonalLoop=1;jettySize=auto;html=1;exitX=0.05;exitY=0.5;exitDx=0;exitDy=0;exitPerimeter=0;entryX=0.86;entryY=0.39;entryDx=0;entryDy=0;entryPerimeter=0;labelBackgroundColor=#F4F1DE;strokeColor=#E07A5F;fontColor=#393C56;" edge="1" parent="1" source="TpguyCT8DOVx2taM9COL-19" target="TpguyCT8DOVx2taM9COL-21">
          <mxGeometry relative="1" as="geometry" />
        </mxCell>
        <mxCell id="TpguyCT8DOVx2taM9COL-19" value="" style="pointerEvents=1;shadow=0;dashed=0;html=1;strokeColor=#E07A5F;labelPosition=center;verticalLabelPosition=bottom;verticalAlign=top;align=center;fillColor=#F2CC8F;shape=mxgraph.mscae.intune.user_group;fontColor=#393C56;" vertex="1" parent="1">
          <mxGeometry x="1080" y="550" width="50" height="37" as="geometry" />
        </mxCell>
        <mxCell id="TpguyCT8DOVx2taM9COL-35" style="edgeStyle=orthogonalEdgeStyle;rounded=0;orthogonalLoop=1;jettySize=auto;html=1;labelBackgroundColor=#F4F1DE;strokeColor=#E07A5F;fontColor=#393C56;" edge="1" parent="1" source="TpguyCT8DOVx2taM9COL-46" target="TpguyCT8DOVx2taM9COL-16">
          <mxGeometry relative="1" as="geometry" />
        </mxCell>
        <mxCell id="TpguyCT8DOVx2taM9COL-20" value="" style="pointerEvents=1;shadow=0;dashed=0;html=1;strokeColor=#E07A5F;labelPosition=center;verticalLabelPosition=bottom;verticalAlign=top;align=center;shape=mxgraph.mscae.system_center.admin_console;fillColor=#F2CC8F;fontColor=#393C56;" vertex="1" parent="1">
          <mxGeometry x="80" y="230" width="50" height="36" as="geometry" />
        </mxCell>
        <mxCell id="TpguyCT8DOVx2taM9COL-21" value="" style="outlineConnect=0;dashed=0;verticalLabelPosition=bottom;verticalAlign=top;align=center;html=1;shape=mxgraph.aws3.application;fillColor=#F2CC8F;strokeColor=#E07A5F;fontColor=#393C56;" vertex="1" parent="1">
          <mxGeometry x="1020" y="615.5" width="40" height="64.5" as="geometry" />
        </mxCell>
        <mxCell id="TpguyCT8DOVx2taM9COL-42" style="edgeStyle=orthogonalEdgeStyle;rounded=0;orthogonalLoop=1;jettySize=auto;html=1;labelBackgroundColor=#F4F1DE;strokeColor=#E07A5F;fontColor=#393C56;" edge="1" parent="1" source="TpguyCT8DOVx2taM9COL-28" target="TpguyCT8DOVx2taM9COL-39">
          <mxGeometry relative="1" as="geometry" />
        </mxCell>
        <mxCell id="TpguyCT8DOVx2taM9COL-43" style="edgeStyle=orthogonalEdgeStyle;rounded=0;orthogonalLoop=1;jettySize=auto;html=1;labelBackgroundColor=#F4F1DE;strokeColor=#E07A5F;fontColor=#393C56;" edge="1" parent="1" source="TpguyCT8DOVx2taM9COL-18" target="TpguyCT8DOVx2taM9COL-21">
          <mxGeometry relative="1" as="geometry" />
        </mxCell>
        <mxCell id="TpguyCT8DOVx2taM9COL-28" value="" style="outlineConnect=0;dashed=0;verticalLabelPosition=bottom;verticalAlign=top;align=center;html=1;shape=mxgraph.aws3.stack_aws_cloudformation;fillColor=#F2CC8F;shadow=0;sketch=0;strokeColor=#E07A5F;fontColor=#393C56;" vertex="1" parent="1">
          <mxGeometry x="700" y="470" width="82" height="58.5" as="geometry" />
        </mxCell>
        <mxCell id="TpguyCT8DOVx2taM9COL-38" style="edgeStyle=orthogonalEdgeStyle;rounded=0;orthogonalLoop=1;jettySize=auto;html=1;labelBackgroundColor=#F4F1DE;strokeColor=#E07A5F;fontColor=#393C56;" edge="1" parent="1" source="TpguyCT8DOVx2taM9COL-16" target="TpguyCT8DOVx2taM9COL-18">
          <mxGeometry relative="1" as="geometry">
            <mxPoint x="488" y="209.00000000000023" as="sourcePoint" />
            <mxPoint x="782" y="249.00000000000023" as="targetPoint" />
          </mxGeometry>
        </mxCell>
        <mxCell id="TpguyCT8DOVx2taM9COL-39" value="" style="outlineConnect=0;fontColor=#393C56;gradientDirection=north;fillColor=#F2CC8F;strokeColor=#E07A5F;dashed=0;verticalLabelPosition=bottom;verticalAlign=top;align=center;html=1;fontSize=12;fontStyle=0;aspect=fixed;shape=mxgraph.aws4.resourceIcon;resIcon=mxgraph.aws4.appstream_20;shadow=0;sketch=0;" vertex="1" parent="1">
          <mxGeometry x="300" y="490" width="90" height="90" as="geometry" />
        </mxCell>
        <mxCell id="TpguyCT8DOVx2taM9COL-18" value="Spot Fleet" style="points=[[0,0],[0.25,0],[0.5,0],[0.75,0],[1,0],[1,0.25],[1,0.5],[1,0.75],[1,1],[0.75,1],[0.5,1],[0.25,1],[0,1],[0,0.75],[0,0.5],[0,0.25]];outlineConnect=0;html=1;whiteSpace=wrap;fontSize=12;fontStyle=0;shape=mxgraph.aws4.group;grIcon=mxgraph.aws4.group_spot_fleet;strokeColor=#E07A5F;fillColor=none;verticalAlign=top;align=left;spacingLeft=30;fontColor=#393C56;dashed=0;shadow=0;sketch=0;" vertex="1" parent="1">
          <mxGeometry x="80" y="345.75" width="900" height="310" as="geometry" />
        </mxCell>
        <mxCell id="TpguyCT8DOVx2taM9COL-46" value="Auto Scaling group" style="points=[[0,0],[0.25,0],[0.5,0],[0.75,0],[1,0],[1,0.25],[1,0.5],[1,0.75],[1,1],[0.75,1],[0.5,1],[0.25,1],[0,1],[0,0.75],[0,0.5],[0,0.25]];outlineConnect=0;html=1;whiteSpace=wrap;fontSize=12;fontStyle=0;shape=mxgraph.aws4.groupCenter;grIcon=mxgraph.aws4.group_auto_scaling_group;grStroke=1;strokeColor=#E07A5F;fillColor=none;verticalAlign=top;align=center;fontColor=#393C56;dashed=1;spacingTop=25;shadow=0;sketch=0;" vertex="1" parent="1">
          <mxGeometry x="220" y="94" width="130" height="676" as="geometry" />
        </mxCell>
        <mxCell id="TpguyCT8DOVx2taM9COL-47" style="edgeStyle=orthogonalEdgeStyle;rounded=0;orthogonalLoop=1;jettySize=auto;html=1;labelBackgroundColor=#F4F1DE;strokeColor=#E07A5F;fontColor=#393C56;" edge="1" parent="1" source="TpguyCT8DOVx2taM9COL-20" target="TpguyCT8DOVx2taM9COL-46">
          <mxGeometry relative="1" as="geometry">
            <mxPoint x="130" y="248" as="sourcePoint" />
            <mxPoint x="410" y="209.00000000000023" as="targetPoint" />
          </mxGeometry>
        </mxCell>
      </root>
    </mxGraphModel>
  </diagram>
</mxfile>
